<svg width="265" height="63" viewBox="0 0 265 63" fill="none" xmlns="http://www.w3.org/2000/svg">
<path d="M248.511 55.7263H238.067V51.301C237.9 51.399 237.742 51.5119 237.596 51.6381C234.102 55.7403 229.623 57.3185 224.285 56.9438C215.543 56.3397 207.551 50.3082 204.859 42.1647C203.233 37.1963 203.523 31.8053 205.674 27.0375C207.824 22.2698 211.681 18.4652 216.496 16.362C221.904 13.9597 227.449 13.3275 233.046 15.7251C234.489 16.4292 235.893 17.2108 237.252 18.0666V2.04645H248.53L248.511 55.7263ZM237.723 35.7023C237.745 33.4786 237.103 31.2983 235.877 29.4374C234.651 27.5764 232.897 26.1185 230.837 25.2481C228.776 24.3776 226.502 24.1338 224.302 24.5476C222.102 24.9613 220.075 26.0139 218.478 27.5722C216.88 29.1305 215.784 31.1244 215.328 33.3017C214.872 35.4789 215.077 37.7415 215.916 39.8031C216.756 41.8648 218.192 43.6328 220.043 44.8835C221.895 46.1341 224.078 46.8111 226.317 46.8288C227.804 46.8499 229.28 46.5779 230.66 46.0287C232.04 45.4795 233.297 44.664 234.358 43.6292C235.418 42.5945 236.262 41.3611 236.84 40.0005C237.417 38.6398 237.718 37.1789 237.723 35.7023Z" fill="black"/>
<path d="M200.634 55.0332H189.389V53.6283C189.389 47.6249 189.44 41.6167 189.356 35.6086C189.359 33.8206 189.11 32.0409 188.615 30.3216C187.224 25.9057 183.608 23.5174 179.048 23.7234C174.654 23.9295 171.226 26.8188 170.222 31.3144C169.916 32.6831 169.758 34.0802 169.75 35.4821C169.698 41.5277 169.727 47.5733 169.727 53.6189V54.9863H158.495C158.454 54.7288 158.428 54.4693 158.415 54.209C158.415 47.653 158.292 41.0969 158.448 34.5409C158.637 26.772 161.749 20.408 168.661 16.4088C181.17 9.155 199.493 15.5986 200.582 33.3468C201.011 40.343 200.7 47.3954 200.719 54.4197C200.705 54.6259 200.677 54.8309 200.634 55.0332Z" fill="black"/>
<path d="M113.975 14.7744H125.291V16.0294C125.291 22.2717 125.202 28.5187 125.343 34.7609C125.388 36.8195 125.783 38.8557 126.513 40.7831C127.927 44.4639 131.11 46.2761 135.066 46.1263C138.932 45.9811 141.997 43.8223 143.147 40.0666C143.705 38.1546 143.995 36.1755 144.01 34.1849C144.119 28.219 144.053 22.2436 144.053 16.2776V14.8259H155.228C155.299 14.9502 155.345 15.0869 155.364 15.2287C155.331 22.5995 155.543 29.9844 155.176 37.3412C154.704 46.6039 148.259 53.853 139.342 55.8292C126.927 58.5874 115.408 50.4439 114.216 37.9313C113.867 34.2552 114.018 30.5276 113.985 26.8235C113.952 23.1989 113.985 19.5697 113.985 15.9405L113.975 14.7744Z" fill="black"/>
<path d="M102.961 55.0294H91.5878V53.6011C91.5878 44.432 91.5878 35.2629 91.5878 26.0938C91.5878 24.1036 91.8424 24.3331 89.7395 24.3097C88.9143 24.3097 88.0892 24.3097 87.264 24.2722C87.198 24.2722 87.1273 24.2066 87 24.1458V14.7379H91.4463C92.4129 2.65135 102.385 -0.987247 110.524 0.220936V8.89831C104.917 10.3032 102.814 11.9094 103.074 14.7472H110.514V24.2909H102.97L102.961 55.0294Z" fill="black"/>
<path d="M265 56.3819H253.839V2.66455H265V56.3819Z" fill="black"/>
<path d="M31.5 63C48.897 63 63 48.897 63 31.5C63 14.103 48.897 0 31.5 0C14.103 0 0 14.103 0 31.5C0 48.897 14.103 63 31.5 63Z" fill="url(#paint0_linear)"/>
<path d="M31.1569 20.7298C33.4214 20.7255 35.6306 21.4292 37.4753 22.7427C38.3483 23.3618 39.3926 23.6933 40.4629 23.6912C45.4896 23.6912 47.5418 17.2264 43.4221 14.3087C40.9892 12.5868 38.2212 11.396 35.298 10.814C32.3748 10.2319 29.3619 10.2714 26.455 10.9301C23.548 11.5887 20.8123 12.8517 18.4255 14.637C16.0387 16.4222 14.0543 18.6898 12.6012 21.2922C11.1482 23.8946 10.2591 26.7737 9.99168 29.7423C9.72426 32.7108 10.0845 35.7025 11.0491 38.5227C12.0136 41.3429 13.5608 43.9286 15.5901 46.1116C17.6195 48.2947 20.0855 50.0263 22.8279 51.1939C23.6117 51.521 24.4643 51.6491 25.3097 51.5666C26.155 51.4842 26.9668 51.1938 27.6727 50.7214C28.3786 50.2491 28.9566 49.6093 29.3552 48.8593C29.7538 48.1092 29.9605 47.2722 29.957 46.4229C29.9518 45.4139 29.6521 44.4284 29.0945 43.5874C28.537 42.7464 27.746 42.0866 26.8186 41.689C24.559 40.7099 22.6956 38.9975 21.5297 36.8284H32.3742C33.0522 36.829 33.7235 36.696 34.3501 36.4371C34.9766 36.1782 35.546 35.7985 36.0258 35.3195C36.5055 34.8406 36.8862 34.2718 37.1462 33.6457C37.4062 33.0196 37.5402 32.3485 37.5408 31.6705C37.5408 30.9927 37.4073 30.3216 37.1478 29.6954C36.8884 29.0692 36.5081 28.5003 36.0287 28.0211C35.5493 27.5419 34.9802 27.1619 34.3539 26.9027C33.7276 26.6435 33.0564 26.5102 32.3786 26.5105H21.534C22.4636 24.7654 23.85 23.3058 25.5449 22.2876C27.2399 21.2694 29.1796 20.7309 31.1569 20.7298Z" fill="white"/>
<defs>
<linearGradient id="paint0_linear" x1="9.2273" y1="9.2273" x2="53.7749" y2="53.7749" gradientUnits="userSpaceOnUse">
<stop stop-color="#FB6824"/>
<stop offset="1" stop-color="#FCCF27"/>
</linearGradient>
</defs>
</svg>
